Coordinates
version=1
nRows=17
nColumns=24
inDegrees=yes

Units are S.I. units (second, meters, Newtons, ...)
Angles are in degrees.

endheader
time	pelvis_tilt	pelvis_list	pelvis_rotation	pelvis_tx	pelvis_ty	pelvis_tz	hip_flexion_r	hip_adduction_r	hip_rotation_r	knee_angle_r	ankle_angle_r	subtalar_angle_r	mtp_angle_r	hip_flexion_l	hip_adduction_l	hip_rotation_l	knee_angle_l	ankle_angle_l	subtalar_angle_l	mtp_angle_l	lumbar_extension	lumbar_bending	lumbar_rotation
      3.68000000	     12.74688562	     11.60277076	     18.92250165	      1.30802643	      0.74036026	     -0.26812250	     10.60035661	    -15.05024128	    -13.13770268	     -9.89115980	     23.11614055	     17.60658282	      0.00000000	    -31.92776096	      4.95773064	     10.38037063	    -19.13596593	     28.11975933	     23.01960510	      0.00000000	    -31.14630048	     -4.48771221	    -17.09642232
      3.68500000	     12.84174427	     11.36424731	     19.10130908	      1.31717269	      0.74037513	     -0.26755914	     10.26886946	    -14.50627500	    -13.09602413	    -10.21923704	     22.61935183	     16.95123808	      0.00000000	    -31.78254616	      4.36712258	     10.26671671	    -20.65948182	     27.24566666	     23.34461647	      0.00000000	    -30.91601367	     -4.33879228	    -17.00041998
      3.69000000	     12.90199803	     11.10878028	     19.30376095	      1.32628300	      0.74037736	     -0.26706825	      9.99856067	    -13.97445730	    -13.07040847	    -10.68072709	     22.03491736	     16.35338194	      0.00000000	    -31.52776897	      3.80185100	     10.27294033	    -22.29133665	     26.24632299	     23.43507049	      0.00000000	    -30.64801514	     -4.16689398	    -16.91596146
      3.69500000	     12.95232537	     10.82556311	     19.46511614	      1.33537556	      0.74036603	     -0.26655477	      9.77604448	    -13.40117689	    -12.86670495	    -11.23044497	     21.38175880	     15.56109619	      0.00000000	    -31.17643112	      3.25368603	     10.22306755	    -24.02870718	     25.10245119	     23.51996506	      0.00000000	    -30.36246508	     -3.98551294	    -16.77087906
      3.70000000	     12.99916090	     10.50944174	     19.60235122	      1.34441368	      0.74035010	     -0.26603057	      9.59751925	    -12.78730601	    -12.54486391	    -11.87225479	     20.68150594	     14.66004634	      0.00000000	    -30.72557048	      2.71420165	     10.15792988	    -25.88107701	     23.82623506	     23.52569485	      0.00000000	    -30.07091700	     -3.77887200	    -16.57659792
      3.70500000	     13.04550155	     10.16364032	     19.70664296	      1.35338610	      0.74032623	     -0.26549328	      9.47194443	    -12.13644343	    -12.09564225	    -12.62194346	     19.97272800	     13.67663102	      0.00000000	    -30.18402754	      2.18700601	     10.05548272	    -27.82975844	     22.41167901	     23.44933140	      0.00000000	    -29.78046035	     -3.54416911	    -16.36242433
      3.71000000	     13.08387898	      9.78549540	     19.78856537	      1.36228414	      0.74029522	     -0.26492584	      9.39693169	    -11.44244843	    -11.51989534	    -13.45104399	     19.28718832	     12.61289613	      0.00000000	    -29.53861080	      1.66482149	      9.93253651	    -29.87295993	     20.85323049	     23.31315352	      0.00000000	    -29.48660651	     -3.29201271	    -16.10538981
      3.71500000	     13.14251111	      9.34724842	     19.87516027	      1.37106708	      0.74027656	     -0.26440191	      9.34062081	    -10.68653440	    -10.96221177	    -14.34758893	     18.59314742	     11.59460752	      0.00000000	    -28.80781544	      1.11503812	      9.83934633	    -32.01587419	     19.23168608	     22.99246635	      0.00000000	    -29.21170858	     -2.94663650	    -15.85248544
      3.72000000	     13.18118975	      8.86914694	     19.93981226	      1.37976823	      0.74024551	     -0.26383491	      9.33573845	     -9.87589848	    -10.28959259	    -15.28047635	     17.96372351	     10.49817903	      0.00000000	    -27.96065462	      0.56562801	      9.72909533	    -34.23031844	     17.49665736	     22.61352314	      0.00000000	    -28.92152135	     -2.57887934	    -15.55643667
      3.72500000	     13.22509296	      8.34986817	     20.00074658	      1.38836345	      0.74021654	     -0.26326335	      9.35233700	     -9.01430436	     -9.59013495	    -16.24604457	     17.43834132	      9.43561663	      0.00000000	    -27.02989587	      0.00201628	      9.64593925	    -36.49790447	     15.67587020	     22.16612380	      0.00000000	    -28.64495258	     -2.16425251	    -15.25509540
      3.73000000	     13.28085412	      7.77725252	     20.06839830	      1.39683833	      0.74019657	     -0.26270984	      9.37552648	     -8.09133105	     -8.92350275	    -17.22248536	     16.97920360	      8.43444800	      0.00000000	    -26.01901602	     -0.58673273	      9.59591767	    -38.81391561	     13.86355194	     21.57247911	      0.00000000	    -28.38472704	     -1.67559401	    -14.95627030
      3.73500000	     13.33306439	      7.16151245	     20.13923986	      1.40520032	      0.74017643	     -0.26215697	      9.40808144	     -7.11714750	     -8.26785214	    -18.17903486	     16.61453599	      7.48564235	      0.00000000	    -24.92194084	     -1.19059798	      9.57865279	    -41.15615117	     12.07181236	     20.91534967	      0.00000000	    -28.13025040	     -1.13640489	    -14.66312689
      3.74000000	     13.40357448	      6.50712478	     20.22415476	      1.41345359	      0.74017681	     -0.26165493	      9.41380320	     -6.10046494	     -7.69450048	    -19.10032561	     16.37653816	      6.63786734	      0.00000000	    -23.77725465	     -1.80725956	      9.63187770	    -43.49644781	     10.36514319	     20.16317961	      0.00000000	    -27.90073054	     -0.53022993	    -14.38310060
      3.74500000	     13.47221198	      5.82257795	     20.31967940	      1.42159409	      0.74018512	     -0.26117410	      9.40403065	     -5.05049991	     -7.17501508	    -19.95928529	     16.24867858	      5.86377181	      0.00000000	    -22.56692596	     -2.42477293	      9.74436800	    -45.82531947	      8.78178783	     19.38716861	      0.00000000	    -27.68136688	      0.11867879	    -14.11936771
      3.75000000	     13.54711777	      5.12069112	     20.42980434	      1.42962293	      0.74021828	     -0.26074167	      9.35507922	     -3.98477032	     -6.74225640	    -20.73492327	     16.23563538	      5.19193196	      0.00000000	    -21.31079502	     -3.03047460	      9.92818121	    -48.12762798	      7.37953820	     18.59327050	      0.00000000	    -27.48370400	      0.80514255	    -13.87802962
      3.75500000	     13.62523601	      4.40475451	     20.54889688	      1.43755268	      0.74027660	     -0.26036605	      9.27038237	     -2.90889503	     -6.39256164	    -21.42973921	     16.33107341	      4.61317768	      0.00000000	    -20.02064199	     -3.61196912	     10.19358356	    -50.37725730	      6.19330503	     17.81667244	      0.00000000	    -27.30091441	      1.52582359	    -13.65849406
      3.76000000	     13.70942733	      3.69388591	     20.68064702	      1.44537818	      0.74037525	     -0.26005289	      9.12486073	     -1.84467511	     -6.13945451	    -22.00740065	     16.53110240	      4.13976673	      0.00000000	    -18.70366913	     -4.15421200	     10.53045526	    -52.57478022	      5.26622476	     17.06489608	      0.00000000	    -27.14512704	      2.26144126	    -13.45739837
